<svg width="17" height="18" viewBox="0 0 17 18" fill="none" xmlns="http://www.w3.org/2000/svg">
<path d="M4.50429 5.85602L5.63338 5.49002C5.72235 5.46121 5.81581 5.45124 5.90842 5.46068C6.00104 5.47011 6.09099 5.49877 6.17314 5.54501C6.25529 5.59126 6.32804 5.65418 6.38723 5.73019C6.44641 5.80621 6.49088 5.89382 6.51809 5.98802C6.54529 6.08223 6.55471 6.18119 6.5458 6.27925C6.53689 6.37731 6.50982 6.47255 6.46615 6.55954C6.42247 6.64652 6.36305 6.72355 6.29126 6.78621C6.21947 6.84888 6.13673 6.89596 6.04775 6.92477L3.33838 7.80227C3.24936 7.83109 3.15585 7.84104 3.06319 7.83157C2.97054 7.8221 2.88056 7.79338 2.79839 7.74706C2.71623 7.70074 2.64349 7.63772 2.58434 7.56162C2.52519 7.48551 2.48079 7.39781 2.45367 7.30352L1.62492 4.43477C1.59771 4.34057 1.58829 4.24161 1.59721 4.14355C1.60612 4.04549 1.63318 3.95024 1.67686 3.86326C1.72053 3.77627 1.77996 3.69925 1.85175 3.63658C1.92354 3.57391 2.00628 3.52683 2.09525 3.49802C2.27494 3.43984 2.4691 3.45962 2.63502 3.55301C2.80093 3.64641 2.92501 3.80576 2.97996 3.99602L3.29163 5.07677C4.99729 2.29502 8.381 1.09877 11.385 2.40227C12.2834 2.79217 13.0902 3.38578 13.7486 4.14134C14.407 4.8969 14.901 5.79605 15.1959 6.77552C15.2261 6.86987 15.2383 6.96966 15.2317 7.06905C15.2251 7.16844 15.1998 7.26544 15.1574 7.35439C15.115 7.44333 15.0563 7.52244 14.9847 7.5871C14.9131 7.65175 14.8301 7.70066 14.7405 7.73095C14.6508 7.76124 14.5564 7.77232 14.4626 7.76354C14.3689 7.75475 14.2778 7.72628 14.1945 7.67979C14.1113 7.63329 14.0377 7.5697 13.9779 7.49274C13.9182 7.41577 13.8735 7.32697 13.8465 7.23152C13.5472 6.23655 12.9883 5.35149 12.2343 4.67852C11.4802 4.00556 10.5617 3.57214 9.58494 3.42831C8.60814 3.28448 7.61285 3.43611 6.71397 3.86568C5.8151 4.29526 5.0493 4.98526 4.505 5.85602H4.50429ZM13.2359 12.0023L11.9786 12.3345C11.8876 12.361 11.7925 12.3679 11.6989 12.3548C11.6053 12.3418 11.5151 12.3091 11.4336 12.2586C11.3521 12.2081 11.281 12.1409 11.2244 12.0609C11.1678 11.9809 11.1269 11.8898 11.104 11.7928C11.0812 11.6958 11.0769 11.595 11.0913 11.4962C11.1058 11.3974 11.1388 11.3027 11.1883 11.2176C11.2379 11.1325 11.303 11.0588 11.3798 11.0007C11.4567 10.9427 11.5437 10.9015 11.6358 10.8795L14.2162 10.1978C14.3507 10.13 14.5019 10.109 14.6483 10.1378C14.7894 10.1574 14.9216 10.2216 15.0277 10.3219C15.1338 10.4222 15.209 10.5541 15.2433 10.7003L15.929 13.6103C15.9696 13.8014 15.938 14.0018 15.8409 14.1685C15.7438 14.3353 15.5889 14.4552 15.4094 14.5026C15.2299 14.55 15.04 14.5212 14.8803 14.4223C14.7206 14.3234 14.6038 14.1622 14.5548 13.9733L14.3211 12.9818C13.6391 14.021 12.705 14.8461 11.6172 15.3704C10.5295 15.8946 9.32832 16.0986 8.14029 15.9607C6.95226 15.8228 5.82135 15.3482 4.86668 14.5869C3.91202 13.8256 3.16895 12.8057 2.71575 11.6348L2.53159 11.1593C2.49633 11.0681 2.47838 10.9705 2.47875 10.872C2.47913 10.7735 2.49782 10.676 2.53377 10.5852C2.56971 10.4943 2.62221 10.4119 2.68825 10.3425C2.7543 10.2731 2.8326 10.2182 2.91869 10.1809C3.09256 10.1055 3.28758 10.1063 3.46087 10.1832C3.54668 10.2213 3.62456 10.2768 3.69007 10.3468C3.75559 10.4167 3.80746 10.4996 3.84271 10.5908L4.02688 11.0655C4.38795 11.9984 4.98277 12.8091 5.74715 13.4103C6.51152 14.0114 7.41643 14.3801 8.36422 14.4766C9.31201 14.5731 10.2667 14.3937 11.1252 13.9578C11.9838 13.5219 12.7136 12.846 13.2359 12.003V12.0023Z" fill="#D9D9D9" fill-opacity="0.47"/>
</svg>
