<svg width="45" height="35" viewBox="0 0 45 35" fill="none" xmlns="http://www.w3.org/2000/svg">
<path d="M24.1406 5.78125C25.0312 5.23438 25.625 4.24219 25.625 3.125C25.625 1.39844 24.2266 0 22.5 0C20.7734 0 19.375 1.39844 19.375 3.125C19.375 4.25 19.9688 5.23438 20.8594 5.78125L16.3828 14.7344C15.6719 16.1562 13.8281 16.5625 12.5859 15.5703L5.625 10C6.01562 9.47656 6.25 8.82812 6.25 8.125C6.25 6.39844 4.85156 5 3.125 5C1.39844 5 0 6.39844 0 8.125C0 9.85156 1.39844 11.25 3.125 11.25H3.17969L6.75 30.8906C7.17969 33.2656 9.25 35 11.6719 35H33.3281C35.7422 35 37.8125 33.2734 38.25 30.8906L41.8203 11.25H41.875C43.6016 11.25 45 9.85156 45 8.125C45 6.39844 43.6016 5 41.875 5C40.1484 5 38.75 6.39844 38.75 8.125C38.75 8.82812 38.9844 9.47656 39.375 10L32.4141 15.5703C31.1719 16.5625 29.3281 16.1562 28.6172 14.7344L24.1406 5.78125Z" fill="#E86B26"/>
</svg>
