<svg width="28" height="26" viewBox="0 0 28 26" fill="none" xmlns="http://www.w3.org/2000/svg">
<path d="M19.4892 10.7412C19.2625 9.05996 19.5223 7.35297 20.2417 5.79582C20.3467 5.60082 20.545 5.37332 20.3467 5.16207C20.1483 4.95082 19.8742 5.09707 19.6408 5.16207C19.0392 5.32457 18.4804 5.60096 17.9995 5.97386C17.5186 6.34675 17.1261 6.80806 16.8467 7.32873C16.6892 7.58332 16.5783 7.8379 16.1525 7.78373C14.7152 7.60959 13.2616 7.58416 11.8183 7.7079C10.736 7.76848 9.67904 8.03781 8.71499 8.49873C7.22848 9.25854 6.06271 10.4632 5.40749 11.9167C5.37569 11.8452 5.35222 11.7707 5.33749 11.6946C5.17416 10.9904 4.75416 10.6112 4.09499 10.7033H4.08333C3.93291 10.7209 3.78795 10.7668 3.6573 10.8382C3.52666 10.9096 3.41308 11.005 3.32352 11.1186C3.23397 11.2322 3.17032 11.3616 3.13647 11.4988C3.10262 11.636 3.09928 11.7782 3.12666 11.9167C3.09145 12.516 3.21315 13.1144 3.48134 13.6606C3.74954 14.2068 4.15624 14.6845 4.66666 15.0529C4.8525 15.1711 4.9853 15.3483 5.03999 15.5512C5.38286 16.8915 6.17543 18.096 7.30333 18.9908C7.50722 19.1458 7.66703 19.3449 7.76874 19.5706C7.87045 19.7963 7.91094 20.0418 7.88666 20.2854C7.72916 21.7587 8.35916 22.5062 10.0858 22.7229C10.2185 22.752 10.3529 22.7737 10.4883 22.7879C11.655 23.01 11.5267 23.0046 11.7425 22.0187C11.8883 21.3579 12.1742 21.1629 12.9092 21.2658C13.5043 21.3416 14.1055 21.3688 14.7058 21.3471C16.1467 21.3471 16.1525 21.3471 16.5433 22.5983C16.6133 22.8258 16.6658 23.075 17.01 23.0154C17.8085 22.9452 18.5933 22.7758 19.3433 22.5117C19.628 22.4222 19.8767 22.2547 20.0569 22.0314C20.237 21.808 20.3401 21.5392 20.3525 21.2604C20.23 20.1067 20.6325 19.6354 21.3792 18.7742C21.4842 18.6604 21.7058 18.46 21.8283 18.2975C22.0489 17.972 22.3507 17.7007 22.7081 17.5065C23.0655 17.3123 23.4681 17.2009 23.8817 17.1817C24.5875 17.1492 24.9025 16.9487 24.9025 16.1958V13.9208C24.9287 13.6855 24.8541 13.4501 24.6946 13.2655C24.5352 13.081 24.3039 12.9622 24.0508 12.935C23.6517 12.8611 23.2783 12.6968 22.9639 12.4568C22.6494 12.2168 22.4037 11.9085 22.2483 11.5592C21.6284 10.4305 20.6728 9.49052 19.495 8.85082M20.4458 14.7333C20.1698 14.718 19.9116 14.6016 19.7278 14.4096C19.5441 14.2177 19.4499 13.9659 19.4658 13.7096C19.4809 13.4576 19.603 13.2214 19.8052 13.0529C20.0075 12.8843 20.2736 12.7971 20.545 12.8104V12.8104C20.6865 12.8112 20.8263 12.8388 20.956 12.8913C21.0856 12.9439 21.2024 13.0203 21.2993 13.1161C21.3962 13.2118 21.4711 13.3248 21.5195 13.4483C21.5679 13.5717 21.5888 13.703 21.5809 13.8342C21.573 13.9654 21.5364 14.0937 21.4735 14.2113C21.4105 14.329 21.3225 14.4335 21.2147 14.5186C21.1069 14.6037 20.9816 14.6676 20.8465 14.7064C20.7113 14.7451 20.569 14.758 20.4283 14.7442L20.4458 14.7333Z" stroke="#D9D9D9" stroke-opacity="0.37" stroke-linecap="round" stroke-linejoin="round"/>
<path d="M9.88167 8.02748C9.41114 7.74507 9.04508 7.33558 8.83277 6.85414C8.62047 6.37269 8.5721 5.84241 8.69418 5.33467C8.81626 4.82693 9.10293 4.3661 9.5156 4.01423C9.92827 3.66235 10.4471 3.43632 11.0023 3.36656C11.5575 3.2968 12.1224 3.38666 12.621 3.62404C13.1195 3.86142 13.5278 4.23493 13.7908 4.69429C14.0538 5.15365 14.1589 5.6768 14.092 6.19332C14.0251 6.70984 13.7894 7.19494 13.4167 7.58331" stroke="#D9D9D9" stroke-opacity="0.37" stroke-linecap="round" stroke-linejoin="round"/>
</svg>
