<svg width="40" height="40" viewBox="0 0 40 40" fill="none" xmlns="http://www.w3.org/2000/svg">
<path d="M36.6666 33.3333V20.29C36.6667 19.3825 36.4816 18.4846 36.1225 17.6512C35.7634 16.8178 35.2379 16.0665 34.5783 15.4433L22.29 3.83C21.6711 3.24487 20.8517 2.91885 20 2.91885C19.1483 2.91885 18.3289 3.24487 17.71 3.83L5.42165 15.4433C4.76202 16.0665 4.23657 16.8178 3.87748 17.6512C3.51839 18.4846 3.33322 19.3825 3.33331 20.29V33.3333C3.33331 34.2174 3.6845 35.0652 4.30962 35.6904C4.93474 36.3155 5.78259 36.6667 6.66665 36.6667H33.3333C34.2174 36.6667 35.0652 36.3155 35.6903 35.6904C36.3155 35.0652 36.6666 34.2174 36.6666 33.3333Z" stroke="#D9D9D9" stroke-width="3.33333" stroke-linecap="round" stroke-linejoin="round"/>
</svg>
