<svg width="24" height="29" viewBox="0 0 24 29" fill="none" xmlns="http://www.w3.org/2000/svg">
<path d="M20 9.425H24C24 5.31135 18.49 3.43505 14 3.00295V0H10V3.00295C5.51 3.43505 0 5.31135 0 9.425C0 13.3487 5.332 15.3889 10 15.8485V23.055C7.104 22.6911 4 21.5702 4 19.575H0C0 23.3291 4.85 25.5476 10 26.0072V29H14V25.9985C18.49 25.5664 24 23.6887 24 19.575C24 15.4614 18.49 13.5851 14 13.153V5.945C16.66 6.29155 20 7.30945 20 9.425ZM4 9.425C4 7.30945 7.34 6.29155 10 5.945V12.9036C7.258 12.5367 4 11.4507 4 9.425ZM20 19.575C20 21.6906 16.66 22.7085 14 23.055V16.095C16.66 16.4416 20 17.4595 20 19.575Z" fill="white"/>
</svg>
