<svg width="40" height="40" viewBox="0 0 40 40" fill="none" xmlns="http://www.w3.org/2000/svg">
<path d="M20.8524 39.0969C7.66971 39.0969 4.14752 25.3548 5.73963 16.351C5.80893 15.9591 6.3226 15.8463 6.54643 16.1753C7.23955 17.1941 7.85635 18.6655 8.8783 18.5378C10.4143 18.3458 11.4785 4.79203 20.582 0.978361C20.8709 0.857345 21.1731 1.08695 21.1414 1.39852C20.6913 5.81516 23.3431 12.1382 28.0411 12.1382C30.7342 12.1382 32.5769 9.98883 33.4977 7.83024C33.7774 7.17453 34.7354 7.25719 34.8958 7.9518C36.5388 15.0676 40.931 39.0969 20.8524 39.0969Z" fill="#FF8F1F"/>
<path d="M16.231 25.8459C16.541 25.5854 17.0116 25.7641 17.082 26.1629C17.2467 27.0959 17.7882 28.6995 19.5646 28.6995C21.7015 28.6995 23.1517 22.8195 23.532 21.0902C23.5946 20.8056 23.8718 20.6124 24.1573 20.6705C29.4975 21.7563 32.094 39.0969 20.3524 39.0969C11.8046 39.0969 13.741 27.9376 16.231 25.8459ZM30.8232 7.06672C31.0114 5.59469 28.3242 9.62086 28.3242 9.62086C28.3242 9.62086 30.3729 10.5885 30.8232 7.06672ZM3.74713 29.02C3.80377 28.3934 2.9976 26.7156 2.85486 27.3798C2.51322 28.9692 3.69049 29.6467 3.74713 29.02Z" fill="#FFB636"/>
<path d="M25.2481 27.2341C25.0479 26.3989 24.3297 28.3388 24.42 29.1289C24.5102 29.919 25.7271 29.2322 25.2481 27.2341Z" fill="#FFD469"/>
</svg>
