<svg width="24" height="32" viewBox="0 0 24 32" fill="none" xmlns="http://www.w3.org/2000/svg">
<path fill-rule="evenodd" clip-rule="evenodd" d="M4 0C2.93913 0 1.92172 0.421427 1.17157 1.17157C0.421427 1.92172 0 2.93913 0 4V28C0 29.0609 0.421427 30.0783 1.17157 30.8284C1.92172 31.5786 2.93913 32 4 32H20C21.0609 32 22.0783 31.5786 22.8284 30.8284C23.5786 30.0783 24 29.0609 24 28V10.828C23.9998 9.76722 23.5782 8.74997 22.828 8L16 1.172C15.25 0.421802 14.2328 0.00022655 13.172 0H4ZM8 20C8 19.4696 7.78929 18.9609 7.41421 18.5858C7.03914 18.2107 6.53043 18 6 18C5.46957 18 4.96086 18.2107 4.58579 18.5858C4.21071 18.9609 4 19.4696 4 20V26C4 26.5304 4.21071 27.0391 4.58579 27.4142C4.96086 27.7893 5.46957 28 6 28C6.53043 28 7.03914 27.7893 7.41421 27.4142C7.78929 27.0391 8 26.5304 8 26V20ZM12 14C12.5304 14 13.0391 14.2107 13.4142 14.5858C13.7893 14.9609 14 15.4696 14 16V26C14 26.5304 13.7893 27.0391 13.4142 27.4142C13.0391 27.7893 12.5304 28 12 28C11.4696 28 10.9609 27.7893 10.5858 27.4142C10.2107 27.0391 10 26.5304 10 26V16C10 15.4696 10.2107 14.9609 10.5858 14.5858C10.9609 14.2107 11.4696 14 12 14ZM20 12C20 11.4696 19.7893 10.9609 19.4142 10.5858C19.0391 10.2107 18.5304 10 18 10C17.4696 10 16.9609 10.2107 16.5858 10.5858C16.2107 10.9609 16 11.4696 16 12V26C16 26.5304 16.2107 27.0391 16.5858 27.4142C16.9609 27.7893 17.4696 28 18 28C18.5304 28 19.0391 27.7893 19.4142 27.4142C19.7893 27.0391 20 26.5304 20 26V12Z" fill="#D9D9D9"/>
</svg>
