<svg width="40" height="40" viewBox="0 0 40 40" fill="none" xmlns="http://www.w3.org/2000/svg">
<path d="M5.442 4.102L36.152 19.234C36.3195 19.3165 36.4605 19.4443 36.5591 19.6028C36.6577 19.7613 36.71 19.9443 36.71 20.131C36.71 20.3177 36.6577 20.5007 36.5591 20.6592C36.4605 20.8177 36.3195 20.9455 36.152 21.028L5.44 36.16C5.26794 36.2445 5.07522 36.2778 4.88478 36.2559C4.69434 36.234 4.51421 36.1578 4.36584 36.0364C4.21748 35.915 4.10713 35.7535 4.04794 35.5712C3.98875 35.3889 3.98322 35.1934 4.032 35.008L7.074 23.518C7.12331 23.3321 7.2252 23.1643 7.36744 23.0348C7.50969 22.9054 7.68627 22.8197 7.876 22.788L21.638 20.494C21.72 20.4804 21.7973 20.4466 21.863 20.3956C21.9286 20.3446 21.9805 20.2781 22.014 20.202L22.05 20.082C22.0687 19.9708 22.0492 19.8565 21.9947 19.7578C21.9403 19.659 21.854 19.5816 21.75 19.538L21.638 19.506L7.8 17.2C7.61063 17.168 7.43449 17.0821 7.29262 16.9527C7.15075 16.8232 7.04916 16.6557 7 16.47L4.032 5.256C3.98271 5.07048 3.98786 4.87469 4.04684 4.69202C4.10581 4.50935 4.21612 4.34751 4.36458 4.22583C4.51304 4.10415 4.69339 4.02777 4.88408 4.00581C5.07478 3.98386 5.26776 4.01725 5.44 4.102H5.442Z" fill="white"/>
</svg>
