<svg width="34" height="35" viewBox="0 0 34 35" fill="none" xmlns="http://www.w3.org/2000/svg">
<path d="M16.5582 12.7168C15.3903 12.7168 14.2965 13.1699 13.4684 13.998C12.6442 14.8262 12.1872 15.9199 12.1872 17.0879C12.1872 18.2559 12.6442 19.3496 13.4684 20.1777C14.2965 21.002 15.3903 21.459 16.5582 21.459C17.7262 21.459 18.82 21.002 19.6481 20.1777C20.4723 19.3496 20.9293 18.2559 20.9293 17.0879C20.9293 15.9199 20.4723 14.8262 19.6481 13.998C19.2436 13.5905 18.7622 13.2673 18.2317 13.0474C17.7013 12.8274 17.1325 12.715 16.5582 12.7168V12.7168ZM32.6637 21.916L30.109 19.7324C30.2301 18.9902 30.2926 18.2324 30.2926 17.4785C30.2926 16.7246 30.2301 15.9629 30.109 15.2246L32.6637 13.041C32.8567 12.8758 32.9948 12.6558 33.0597 12.4102C33.1246 12.1645 33.1132 11.905 33.027 11.666L32.9918 11.5645C32.2888 9.5984 31.2353 7.776 29.8825 6.18555L29.8122 6.10352C29.6479 5.91036 29.4289 5.77151 29.1842 5.70526C28.9394 5.63902 28.6803 5.64849 28.4411 5.73242L25.2692 6.86133C24.0973 5.90039 22.7926 5.14258 21.3786 4.61523L20.7653 1.29883C20.719 1.04899 20.5978 0.81915 20.4178 0.639835C20.2378 0.46052 20.0075 0.340222 19.7575 0.294922L19.652 0.275391C17.6207 -0.0917969 15.4801 -0.0917969 13.4489 0.275391L13.3434 0.294922C13.0934 0.340222 12.8631 0.46052 12.6831 0.639835C12.5031 0.81915 12.3819 1.04899 12.3356 1.29883L11.7184 4.63086C10.3177 5.16241 9.01291 5.91838 7.85512 6.86914L4.65981 5.73242C4.42061 5.64782 4.16134 5.63801 3.91643 5.7043C3.67153 5.77058 3.45259 5.90982 3.28872 6.10352L3.2184 6.18555C1.86798 7.7777 0.814775 9.59964 0.109028 11.5645L0.0738714 11.666C-0.10191 12.1543 0.0426215 12.7012 0.437153 13.041L3.02309 15.248C2.902 15.9824 2.8434 16.7324 2.8434 17.4746C2.8434 18.2246 2.902 18.9746 3.02309 19.7012L0.444965 21.9082C0.25198 22.0734 0.113857 22.2935 0.048965 22.5391C-0.0159274 22.7847 -0.00451547 23.0442 0.0816838 23.2832L0.11684 23.3848C0.823871 25.3496 1.86684 27.166 3.22621 28.7637L3.29653 28.8457C3.4608 29.0389 3.67975 29.1777 3.9245 29.244C4.16926 29.3102 4.42835 29.3007 4.66762 29.2168L7.86293 28.0801C9.027 29.0371 10.3239 29.7949 11.7262 30.3184L12.3434 33.6504C12.3897 33.9002 12.5109 34.1301 12.6909 34.3094C12.8709 34.4887 13.1012 34.609 13.3512 34.6543L13.4567 34.6738C15.5079 35.043 17.6086 35.043 19.6598 34.6738L19.7653 34.6543C20.0153 34.609 20.2456 34.4887 20.4256 34.3094C20.6056 34.1301 20.7268 33.9002 20.7731 33.6504L21.3864 30.334C22.8004 29.8027 24.1051 29.0488 25.277 28.0879L28.4489 29.2168C28.6881 29.3014 28.9473 29.3112 29.1922 29.2449C29.4372 29.1786 29.6561 29.0394 29.82 28.8457L29.8903 28.7637C31.2497 27.1582 32.2926 25.3496 32.9997 23.3848L33.0348 23.2832C33.2028 22.7988 33.0582 22.2559 32.6637 21.916ZM16.5582 23.9551C12.7653 23.9551 9.69106 20.8809 9.69106 17.0879C9.69106 13.2949 12.7653 10.2207 16.5582 10.2207C20.3512 10.2207 23.4254 13.2949 23.4254 17.0879C23.4254 20.8809 20.3512 23.9551 16.5582 23.9551Z" fill="#D9D9D9"/>
</svg>
