<svg width="40" height="40" viewBox="0 0 40 40" fill="none" xmlns="http://www.w3.org/2000/svg">
<g clip-path="url(#clip0_1_107)">
<path d="M38.7445 35.7889L33.3334 30.4111V9.72222L30.7778 5.02222C30.5893 4.66389 30.3065 4.36387 29.9598 4.15457C29.6132 3.94527 29.216 3.83465 28.8111 3.83465C28.4062 3.83465 28.009 3.94527 27.6624 4.15457C27.3158 4.36387 27.033 4.66389 26.8445 5.02222L24.4445 9.73334V21.5667L4.12225 1.34445C3.96684 1.18775 3.76828 1.08088 3.55189 1.03747C3.33551 0.994059 3.11109 1.01607 2.90727 1.1007C2.70344 1.18533 2.52944 1.32874 2.40743 1.51265C2.28543 1.69656 2.22096 1.91264 2.22225 2.13334V11.1111H4.63336V12.8889H2.22225V20H4.63336V21.7778H2.22225V29.1667H4.63336V30.9444H2.22225V36.5778C2.22225 36.8725 2.33931 37.1551 2.54768 37.3635C2.75606 37.5718 3.03867 37.6889 3.33336 37.6889H37.9556C38.1763 37.6902 38.3924 37.6257 38.5763 37.5037C38.7602 37.3817 38.9036 37.2077 38.9882 37.0039C39.0728 36.8 39.0949 36.5756 39.0514 36.3592C39.008 36.1429 38.9012 35.9443 38.7445 35.7889V35.7889ZM11.1111 28.8889V18.8222L21.1889 28.8889H11.1111ZM31.1111 31.2333H26.6667V28.5333H31.1111V31.2333ZM31.1111 26.7889H26.6667V10.2778L28.8222 6.08889L31.1111 10.2889V26.7889Z" fill="#D9D9D9"/>
</g>
<defs>
<clipPath id="clip0_1_107">
<rect width="40" height="40" fill="white"/>
</clipPath>
</defs>
</svg>
