<svg width="40" height="40" viewBox="0 0 40 40" fill="none" xmlns="http://www.w3.org/2000/svg">
<path d="M20.002 15.6C19.4239 15.6 18.8515 15.7139 18.3174 15.9351C17.7834 16.1563 17.2981 16.4806 16.8893 16.8893C16.4806 17.2981 16.1563 17.7834 15.9351 18.3174C15.7139 18.8515 15.6 19.4239 15.6 20.002C15.6 20.5801 15.7139 21.1525 15.9351 21.6866C16.1563 22.2207 16.4806 22.7059 16.8893 23.1147C17.2981 23.5235 17.7834 23.8477 18.3174 24.0689C18.8515 24.2901 19.4239 24.404 20.002 24.404C21.1695 24.4037 22.2891 23.9397 23.1144 23.114C23.9397 22.2883 24.4033 21.1685 24.403 20.001C24.4027 18.8335 23.9387 17.714 23.113 16.8886C22.2873 16.0633 21.1675 15.5997 20 15.6H20.002ZM20.002 10.4C20.5798 10.3997 21.1519 10.2857 21.6857 10.0643C22.2194 9.84295 22.7043 9.51863 23.1127 9.10986C23.5211 8.7011 23.845 8.2159 24.0658 7.68197C24.2867 7.14803 24.4003 6.57582 24.4 5.99801C24.3997 5.42019 24.2857 4.84808 24.0643 4.31435C23.8429 3.78062 23.5186 3.29571 23.1099 2.88732C22.7011 2.47893 22.2159 2.15505 21.682 1.93417C21.148 1.71329 20.5758 1.59974 19.998 1.60001C18.8311 1.60054 17.7121 2.06462 16.8873 2.89015C16.0625 3.71569 15.5995 4.83505 15.6 6.00201C15.6005 7.16896 16.0646 8.28791 16.8902 9.11269C17.7157 9.93748 18.8351 10.4005 20.002 10.4ZM20.002 29.6C18.8345 29.6 17.7149 30.0638 16.8893 30.8893C16.0638 31.7149 15.6 32.8345 15.6 34.002C15.6 35.1695 16.0638 36.2892 16.8893 37.1147C17.7149 37.9402 18.8345 38.404 20.002 38.404C21.1695 38.404 22.2892 37.9402 23.1147 37.1147C23.9402 36.2892 24.404 35.1695 24.404 34.002C24.404 32.8345 23.9402 31.7149 23.1147 30.8893C22.2892 30.0638 21.1695 29.6 20.002 29.6Z" fill="#D9D9D9" fill-opacity="0.47"/>
</svg>
