<svg width="20" height="20" viewBox="0 0 20 20" fill="none" xmlns="http://www.w3.org/2000/svg">
<path d="M14.8387 5.44565V5.21739C14.8387 3.63043 13.9677 2.22826 12.379 1.26087C11.0403 0.445652 9.27419 0 7.41935 0C5.56452 0 3.79839 0.445652 2.45968 1.26087C0.870968 2.22826 0 3.63043 0 5.21739V9.56522C0 11.1522 0.870968 12.5543 2.45968 13.5217C3.32275 14.024 4.23107 14.3712 5.16129 14.5543V14.7826C5.16129 16.3696 6.03226 17.7717 7.62097 18.7391C8.95968 19.5543 10.7258 20 12.5806 20C14.4355 20 16.2016 19.5543 17.5403 18.7391C19.129 17.7717 20 16.3696 20 14.7826V10.4348C20 8.03261 17.9597 6.09783 14.8387 5.44565ZM18.0645 10.4348C18.0645 11.2826 16.3065 12.8804 13.0806 13.0326C14.2177 12.1087 14.8387 10.9022 14.8387 9.56522V8.08696C16.9274 8.59783 18.0645 9.72826 18.0645 10.4348ZM5.80645 12.0435V10.3152C6.34212 10.3939 6.88052 10.4338 7.41935 10.4348C7.95819 10.4338 8.49659 10.3939 9.03226 10.3152V12.0435C8.49728 12.1339 7.95852 12.1775 7.41935 12.1739C6.88019 12.1775 6.34143 12.1339 5.80645 12.0435ZM12.9032 8.81522V9.56522C12.9032 10.087 12.2339 10.8913 10.9677 11.4674V9.83696C11.4517 9.67206 11.9239 9.45019 12.379 9.17391C12.5593 9.06971 12.7344 8.94989 12.9032 8.81522ZM7.41935 2.6087C10.9677 2.6087 12.9032 4.33696 12.9032 5.21739C12.9032 6.09783 10.9677 7.82609 7.41935 7.82609C3.87097 7.82609 1.93548 6.09783 1.93548 5.21739C1.93548 4.33696 3.87097 2.6087 7.41935 2.6087ZM1.93548 9.56522V8.81522C2.10429 8.94989 2.27939 9.06971 2.45968 9.17391C2.9148 9.45019 3.38704 9.67206 3.87097 9.83696V11.4674C2.60484 10.8913 1.93548 10.087 1.93548 9.56522ZM7.09677 14.7826H7.41935C7.70968 14.7826 8 14.7717 8.29032 14.75C8.52419 14.8587 8.77419 14.9674 9.03226 15.0543V16.6848C7.76613 16.1087 7.09677 15.3043 7.09677 14.7826ZM10.9677 17.2609V15.5326C11.5034 15.6112 12.0418 15.6512 12.5806 15.6522C13.1195 15.6512 13.6579 15.6112 14.1935 15.5326V17.2609C13.1221 17.4347 12.0391 17.4347 10.9677 17.2609ZM16.129 16.6848V15.0543C16.613 14.8895 17.0852 14.6676 17.5403 14.3913C17.7206 14.2871 17.8957 14.1673 18.0645 14.0326V14.7826C18.0645 15.3043 17.3952 16.1087 16.129 16.6848Z" fill="#FFD469" fill-opacity="0.51"/>
</svg>
